# xmcd
#
# Track frame offsets:
#	150
#	24032
#	46209
#	63997
#	80911
#	98729
#	117147
#	134548
#	149760
#	165886
#	183754
#	200435
#	221662
#	239070
#	254386
#
# Disc length: 3659 seconds
#
# Revision: 0
# Processed by: cddbd v1.5.2PL0 Copyright (c) Steve Scherf et al.
# Submitted via: audiograbber 1.83.01
#
DISCID=d30e490f
DTITLE=El Puma - José Luis Rodriguez - 15 Exitos De José Luis Rodriguez
DYEAR=1900
DGENRE=Latin
TTITLE0=Voy a perder  la cabeza
TTITLE1=Dueño de nada
TTITLE2=Agarrense de  las manos
TTITLE3=De punta a punta
TTITLE4=Te propongo
TTITLE5=Un toque de locura
TTITLE6=Pavo realTrack  7
TTITLE7=Hay muchas  cosas que me gusta de ti
TTITLE8=TSilencio
TTITLE9=Por si volvieras
TTITLE10=Atrevete
TTITLE11=Tengo derecho a ser feliz
TTITLE12=Se busca
TTITLE13=Culpable soy yo
TTITLE14=Himno a la alegría
EXTD=
EXTT0=
EXTT1=
EXTT2=
EXTT3=
EXTT4=
EXTT5=
EXTT6=
EXTT7=
EXTT8=
EXTT9=
EXTT10=
EXTT11=
EXTT12=
EXTT13=
EXTT14=
PLAYORDER=
